<svg xmlns="http://www.w3.org/2000/svg" xmlns:xlink="http://www.w3.org/1999/xlink" width="255.089" height="60" viewBox="0 0 255.089 60">
  <defs>
    <linearGradient id="linear-gradient" y1="0.5" x2="1" y2="0.5" gradientUnits="objectBoundingBox">
      <stop offset="0" stop-color="#fab019"/>
      <stop offset="0.7" stop-color="#f04f31"/>
    </linearGradient>
    <linearGradient id="linear-gradient-2" x1="0.933" y1="0.168" x2="0.249" y2="1.155" gradientUnits="objectBoundingBox">
      <stop offset="0.1" stop-color="#091f92"/>
      <stop offset="0.8" stop-color="#00c8dc"/>
    </linearGradient>
    <linearGradient id="linear-gradient-3" x1="0" y1="0.5" y2="0.5" xlink:href="#linear-gradient"/>
  </defs>
  <g id="Acuity_logo" data-name="Acuity logo" transform="translate(-544.413 -122.5)">
    <g id="Group_1" data-name="Group 1" transform="translate(647.835 129.635)">
      <path id="Path_3" data-name="Path 3" d="M91.464,10.116h3.972L105.92,35.427h-4.148l-2.719-6.689H87.847l-2.719,6.689H80.98Zm-2.171,15h8.313L93.459,14.635Z" transform="translate(-80.98 -9.763)" fill="#fff"/>
      <path id="Path_4" data-name="Path 4" d="M118.922,10.355a11.342,11.342,0,0,1,2.923,1.225,20,20,0,0,1,2.02,1.431,8.631,8.631,0,0,1,1.271,1.217l.388.495L123,17.264c-.071-.095-.172-.225-.308-.4a10.945,10.945,0,0,0-.927-.927,8.915,8.915,0,0,0-1.553-1.156,10.579,10.579,0,0,0-2.161-.9,9.4,9.4,0,0,0-2.816-.415,9.326,9.326,0,0,0-9.408,9.389,9.329,9.329,0,0,0,9.408,9.408,9.658,9.658,0,0,0,2.833-.413,8.951,8.951,0,0,0,2.241-1,16.152,16.152,0,0,0,1.571-1.155,8.391,8.391,0,0,0,1.015-.981l.283-.441,2.541,2.543a6.305,6.305,0,0,1-.432.555A14.229,14.229,0,0,1,124,32.586a14.916,14.916,0,0,1-2.119,1.535,14.021,14.021,0,0,1-6.644,1.748,13.07,13.07,0,0,1-9.532-3.777,12.443,12.443,0,0,1-3.848-9.232,12.44,12.44,0,0,1,3.848-9.231,13.07,13.07,0,0,1,9.532-3.777A13.3,13.3,0,0,1,118.922,10.355Z" transform="translate(-74.022 -9.851)" fill="#fff"/>
      <path id="Path_5" data-name="Path 5" d="M139.709,30.149a6.676,6.676,0,0,0,1.985-4.836v-15.2h3.988v15.2a10,10,0,0,1-3.115,7.4,10.837,10.837,0,0,1-15.109-.009,10.015,10.015,0,0,1-3.115-7.395v-15.2h3.989v15.2a6.669,6.669,0,0,0,1.985,4.844,6.455,6.455,0,0,0,9.391-.008Z" transform="translate(-66.526 -9.763)" fill="#fff"/>
      <path id="Path_6" data-name="Path 6" d="M146.569,10.116h3.972V35.427h-3.972Z" transform="translate(-59.118 -9.763)" fill="#fff"/>
      <path id="Path_7" data-name="Path 7" d="M173.026,10.116v3.619h-7.589V35.427h-3.972V13.735h-7.589V10.116Z" transform="translate(-56.682 -9.763)" fill="#fff"/>
      <path id="Path_8" data-name="Path 8" d="M181.615,22.224l6.865-12.108h4.343l-9.231,16.273v9.037H179.62V26.389l-9.213-16.273h4.343Z" transform="translate(-51.172 -9.763)" fill="#fff"/>
    </g>
    <g id="Group_2" data-name="Group 2" transform="translate(647.84 166.748)">
      <path id="Path_9" data-name="Path 9" d="M86.381,37.777h1.175l-3.283,3.6,3.6,5.087h-1.12l-3.1-4.4-1.732,1.859V46.46h-.933V37.777h.933v4.9Z" transform="translate(-80.984 -37.656)" fill="#fff"/>
      <path id="Path_10" data-name="Path 10" d="M94.472,37.777V46.46h-.807l-5.329-7.005V46.46H87.4V37.777h.805l5.337,7.012V37.777Z" transform="translate(-78.844 -37.656)" fill="#fff"/>
      <path id="Path_11" data-name="Path 11" d="M102.051,45.309a4.484,4.484,0,1,1,1.3-3.16A4.3,4.3,0,0,1,102.051,45.309Zm-5.675-.6a3.57,3.57,0,0,0,5.027,0,3.715,3.715,0,0,0,0-5.123,3.57,3.57,0,0,0-5.027,0,3.715,3.715,0,0,0,0,5.123Z" transform="translate(-76.503 -37.686)" fill="#fff"/>
      <path id="Path_12" data-name="Path 12" d="M108.039,39.206l-2.3,7.253h-.933l-2.852-8.683h.993l2.295,7.253,2.357-7.253h.872l2.356,7.253,2.3-7.253h.987l-2.853,8.683h-.927Z" transform="translate(-73.993 -37.656)" fill="#fff"/>
      <path id="Path_13" data-name="Path 13" d="M112.515,46.46V37.777h.933v7.816h4.464v.867Z" transform="translate(-70.474 -37.656)" fill="#fff"/>
      <path id="Path_14" data-name="Path 14" d="M123.988,45.593v.867h-6.081V37.777h5.955v.872H118.84V41.5h4.028v.865H118.84v3.227Z" transform="translate(-68.677 -37.656)" fill="#fff"/>
      <path id="Path_15" data-name="Path 15" d="M126.775,37.777a4.437,4.437,0,0,1,3.211,1.277,4.228,4.228,0,0,1,0,6.128,4.431,4.431,0,0,1-3.211,1.277h-2.731V37.777Zm-1.8.872v6.944h1.8a3.521,3.521,0,0,0,2.563-1.011,3.442,3.442,0,0,0,0-4.923,3.527,3.527,0,0,0-2.563-1.011Z" transform="translate(-66.631 -37.656)" fill="#fff"/>
      <path id="Path_16" data-name="Path 16" d="M132.091,38.989a4.47,4.47,0,0,1,4.428-1.117,3.91,3.91,0,0,1,1,.445,5.956,5.956,0,0,1,.7.527,2.858,2.858,0,0,1,.433.453l.14.188-.624.557c-.024-.04-.061-.093-.109-.16a3.326,3.326,0,0,0-.339-.355,3.655,3.655,0,0,0-.58-.451,3.574,3.574,0,0,0-.82-.361,3.443,3.443,0,0,0-1.065-.163,3.4,3.4,0,0,0-2.515,1.035,3.719,3.719,0,0,0,0,5.123,3.4,3.4,0,0,0,2.515,1.035,3.968,3.968,0,0,0,.993-.123,3.326,3.326,0,0,0,.775-.3,6.254,6.254,0,0,0,.533-.339,1.586,1.586,0,0,0,.327-.295l.1-.121V42.893H136v-.865h2.913v2.792a1.786,1.786,0,0,1-.153.191c-.072.079-.221.22-.452.427a5.03,5.03,0,0,1-.743.551,4.766,4.766,0,0,1-2.309.624,4.47,4.47,0,0,1-3.163-7.623Z" transform="translate(-64.382 -37.686)" fill="#fff"/>
      <path id="Path_17" data-name="Path 17" d="M144.87,45.593v.867h-6.081V37.777h5.955v.872h-5.021V41.5h4.028v.865h-4.028v3.227Z" transform="translate(-61.716 -37.656)" fill="#fff"/>
      <path id="Path_18" data-name="Path 18" d="M150.168,37.777a2.732,2.732,0,0,1,2,.781,2.785,2.785,0,0,1,0,3.9,2.733,2.733,0,0,1-2,.784h-2.356V46.46h-.933V37.777Zm-2.356.872v3.717h2.356a1.86,1.86,0,1,0,0-3.717Z" transform="translate(-59.02 -37.656)" fill="#fff"/>
      <path id="Path_19" data-name="Path 19" d="M153.795,44.044,152.8,46.46h-.993l3.6-8.683h.867l3.6,8.683h-.987l-.993-2.416Zm2.047-4.965-1.677,4.093h3.349Z" transform="translate(-57.377 -37.656)" fill="#fff"/>
      <path id="Path_20" data-name="Path 20" d="M162.72,37.777a2.617,2.617,0,0,1,1.911.745,2.5,2.5,0,0,1,.76,1.859A2.664,2.664,0,0,1,165.2,41.4a2.143,2.143,0,0,1-.448.72,3.476,3.476,0,0,1-.527.441,1.906,1.906,0,0,1-.448.243l-.188.06,2.048,3.6h-1.055L162.66,42.99h-2.477V46.46h-.933V37.777Zm-2.537.872v3.469h2.537a1.736,1.736,0,1,0,0-3.469Z" transform="translate(-54.896 -37.656)" fill="#fff"/>
      <path id="Path_21" data-name="Path 21" d="M171.126,37.777v.872h-2.732V46.46h-.927V38.649h-2.731v-.872Z" transform="translate(-53.067 -37.656)" fill="#fff"/>
      <path id="Path_22" data-name="Path 22" d="M177.942,37.777V46.46h-.805l-5.331-7.005V46.46h-.932V37.777h.805l5.336,7.012V37.777Z" transform="translate(-51.021 -37.656)" fill="#fff"/>
      <path id="Path_23" data-name="Path 23" d="M184.4,45.593v.867h-6.081V37.777h5.953v.872h-5.021V41.5h4.028v.865h-4.028v3.227Z" transform="translate(-48.541 -37.656)" fill="#fff"/>
      <path id="Path_24" data-name="Path 24" d="M187.922,37.777a2.622,2.622,0,0,1,1.912.745,2.5,2.5,0,0,1,.76,1.859,2.689,2.689,0,0,1-.188,1.017,2.186,2.186,0,0,1-.448.72,3.485,3.485,0,0,1-.528.441,1.905,1.905,0,0,1-.448.243l-.188.06,2.048,3.6h-1.055l-1.925-3.469h-2.477V46.46h-.933V37.777Zm-2.537.872v3.469h2.537a1.736,1.736,0,1,0,0-3.469Z" transform="translate(-46.496 -37.656)" fill="#fff"/>
      <path id="Path_25" data-name="Path 25" d="M195,43.371a1.754,1.754,0,0,0-.676-.491,8.068,8.068,0,0,0-.917-.317c-.336-.095-.671-.2-1.005-.315a4.757,4.757,0,0,1-.919-.421,1.887,1.887,0,0,1-.675-.7,2.26,2.26,0,0,1,.509-2.752,2.918,2.918,0,0,1,2.023-.688,3.362,3.362,0,0,1,.9.119,3.145,3.145,0,0,1,.712.279,5.208,5.208,0,0,1,.509.321,1.871,1.871,0,0,1,.321.275l.1.121-.624.624a.746.746,0,0,0-.073-.093,1.951,1.951,0,0,0-.229-.207,2.96,2.96,0,0,0-.385-.267,2.322,2.322,0,0,0-.54-.212,2.549,2.549,0,0,0-.692-.093,2.018,2.018,0,0,0-1.361.436,1.345,1.345,0,0,0-.5,1.053,1.157,1.157,0,0,0,.26.763,1.726,1.726,0,0,0,.679.491,8.206,8.206,0,0,0,.92.319c.336.093.669.2,1,.315a4.983,4.983,0,0,1,.917.42,1.892,1.892,0,0,1,.679.7,2.138,2.138,0,0,1,.26,1.085,2.28,2.28,0,0,1-.775,1.791,3.126,3.126,0,0,1-2.144.687,4.045,4.045,0,0,1-1.06-.136,3.516,3.516,0,0,1-.824-.321,4.739,4.739,0,0,1-.569-.379,1.775,1.775,0,0,1-.345-.327l-.115-.14.569-.629a1.337,1.337,0,0,0,.088.113,3.086,3.086,0,0,0,.275.26,2.761,2.761,0,0,0,.457.32,3.432,3.432,0,0,0,1.524.372,2.187,2.187,0,0,0,1.472-.444,1.47,1.47,0,0,0,.515-1.167A1.17,1.17,0,0,0,195,43.371Z" transform="translate(-44.527 -37.686)" fill="#fff"/>
    </g>
    <g id="Group_1529" data-name="Group 1529" transform="translate(544.413 122.5)">
      <path id="Path_1" data-name="Path 1" d="M15.863,29.788c.748-4.615,3.181-8.632,8.109-9.1a9.326,9.326,0,0,1,1.483-.016l1.124.137s9.5,5.5,22.956,18.269S69.4,47.618,72.271,42.176c-.064.187-5.691,16.541-16.647,10.955C44.825,47.624,26.159,32.231,15.863,29.788Z" transform="translate(0.737 0.885)" fill="url(#linear-gradient)"/>
      <path id="Path_2" data-name="Path 2" d="M7.3,52.256a19.347,19.347,0,0,0,15-.98c4.977-2.432,8.584-6.459,10.977-8.779C37.621,38.288,46.1,25.175,56.922,12.684c3.717-4.288,8.7-8,14.551-8.179a13.868,13.868,0,0,1,5.947,1.2,22.07,22.07,0,0,1,8.575,7.064,40.751,40.751,0,0,1,5.051,39.057C83.482,70.07,68.626,63.9,64.466,61.721l-.128-.067-.215-.116-.065-.035-5.737-3.071.159.083c10.907,5.561,16.532-10.623,16.645-10.952v0c2.86-9.079-.88-18.295-2.135-21.189C71.061,21.92,65.055,14.22,58.13,19.865S43.669,48.842,33.87,56.009c-9.728,7.115-26.332-3.6-26.572-3.752Z" transform="translate(-2.118 -4.5)" fill="url(#linear-gradient-2)"/>
      <path id="Path_26" data-name="Path 26" d="M7.114,28.855C-2,38.645,8.592,47.046,8.592,47.046a19.347,19.347,0,0,0,15-.98c.037-.019.071-.041.109-.06l-.505-.78c-.232-.359-.495-.717-.579-.879a29.621,29.621,0,0,1-1.893-4.539,22.072,22.072,0,0,1-.711-9.845c.748-4.615,3.181-8.632,8.109-9.1a9.326,9.326,0,0,1,1.483-.016,10.685,10.685,0,0,1,1.124.137S18.814,16.293,7.114,28.855Z" transform="translate(-3.413 0.71)" fill="url(#linear-gradient-3)"/>
    </g>
  </g>
</svg>
